<svg height="660" width="600" xmlns="http://www.w3.org/2000/svg" xmlns:xlink="http://www.w3.org/1999/xlink"><radialGradient id="a" cx="221.44487" cy="226.33101" gradientTransform="matrix(1.35322 0 0 1.3503203 -77.6293 -86.514009)" gradientUnits="userSpaceOnUse" r="300"><stop offset="0" stop-color="#fff" stop-opacity=".313726"/><stop offset=".19" stop-color="#fff" stop-opacity=".25098"/><stop offset=".60000002" stop-color="#6b6b6b" stop-opacity=".12549"/><stop offset="1" stop-opacity=".12549"/></radialGradient><path d="m299.99999 658.50027s-298.49999-112.43608-298.49999-398.18182v-258.81817h596.99999v258.81817c0 285.74574-298.5 398.18182-298.5 398.18182z" fill="#e20909" fill-rule="evenodd"/><g><path d="m1.5 1.5h597v180h-597z" fill="#2b5df2" stroke="#000" stroke-width="3"/><g id="b" fill="#fcef3c" stroke="#000" stroke-width="1.317374" transform="matrix(1.8965674 0 0 1.8988638 42.18054 6.293671)"><path d="m29.738807 62.945549c-2.689943 6.351213-6.015432 8.922247-9.243665 12.043068 3.618431.01652 7.225043-.678341 10.962762-3.813951.06366 9.674934 1.458013 12.982212 4.819106 16.232778 3.322963-3.148967 4.858497-6.547149 4.847287-16.232778 3.737718 3.135613 7.334938 3.830472 10.953368 3.813951-3.227999-3.120592-6.544434-5.692883-9.234271-12.043068z" fill="#fcef3c" fill-rule="evenodd" stroke="#000" stroke-width="1.317374"/><path d="m21.706974 58.178268h29.158859v4.771534h-29.158859z" fill="#fcef3c" stroke="#000" stroke-width="1.317374"/><path d="m126.28125 7.9375c-34.941678 37.094566-48.391726 79.825556-20.625 133.34375 6.34161 16.25846 11.33844 33.04455 10.3125 52.25h20.625c-1.02594-19.20545 3.97088-35.99154 10.3125-52.25 27.76673-53.518189 14.31668-96.249184-20.625-133.34375z" fill="#fcef3c" fill-rule="evenodd" stroke="#000" stroke-width="4.382379" transform="matrix(.300607 0 0 .300607 -1.678333 0)"/><path d="m52.25 100c-35.235309.84534-58.7273133 60.01799 15.21875 88.875-24.439711-47.87444 20.895745-30.13204 26.875 4.65625h17.53125c-9.67933-70.66082-37.052039-94.072804-59.625-93.53125z" fill="#fcef3c" fill-rule="evenodd" stroke="#000" stroke-width="4.382379" transform="matrix(.300607 0 0 .300607 -1.678333 0)"/><path d="m198.96875 100c-22.30142.41761-48.7644 24.28444-58.25 93.53125h17.5c5.97956-34.78829 51.34596-52.53069 26.90625-4.65625 74.89409-29.22698 49.82147-89.548704 13.84375-88.875z" fill="#fcef3c" fill-rule="evenodd" stroke="#000" stroke-width="4.382379" transform="matrix(.300607 0 0 .300607 -1.678333 0)"/></g><use id="c" height="100%" transform="translate(189.00001 .000011)" width="100%" xlink:href="#b"/><use height="100%" transform="translate(188)" width="100%" xlink:href="#c"/></g><g style="stroke-width:3.843375;fill:#fff;fill-rule:evenodd;stroke:#000;stroke-linecap:round;stroke-linejoin:round" transform="matrix(.65004885 0 0 .65089132 1144.098 789.59895)"><g stroke-width="3.027877" transform="matrix(1.26933 0 0 1.26933 -1575.7929 -942.94659)"><path d="m41.573987 34.811941c-4.676688.211741-8.952935 2.938013-10.763836 7.821364 13.197391-3.427368 10.869501 4.77016 10.074969 9.303247l12.200754 1.846449c1.170562-6.453724 1.77826-14.477242-5.080099-17.669077-2.098103-.976444-4.306015-1.39823-6.431788-1.301983zm28.541802 7.934991c-2.406636-.09345-4.93902.624388-7.066211 2.132876 5.156009 1.98416 6.437242 8.503964 2.904609 14.565623l11.895372 4.161601c1.606916-4.606281 2.143674-12.10573-.210687-16.438106-1.543794-2.840796-4.428841-4.301906-7.523083-4.421994zm-55.372089 13.713411c-4.8168589.025452-9.2010853 2.326824-10.4087483 7.558596 11.6184233-3.466371 11.0416443 2.076686 12.5297943 8.342147l12.823335-6.152452c-2.566538-5.768603-8.187576-9.394561-13.976178-9.722257-.324156-.0183-.647076-.02775-.968203-.02606zm27.403163 66.661447c-1.975639 3.75828-3.17094 9.46368-13.812846 7.71483 6.410383 13.72516 21.91249 5.75912 24.470157 2.27255zm-39.0073705 102.31206c-7.3143848-.11042-13.6791475 3.61676-15.5172455 10.79697 6.8124846-1.52184 13.10839157-.31397 16.2037491 4.17345l12.1202629-8.71381c-1.967021-3.36241-6.239499-5.7554-11.3319729-6.18322-.4950037-.0416-.9871591-.0661-1.4747936-.0735zm-17.1435425 24.66426c-1.722338-.017-3.583513.20759-5.489619.83563-6.708848 2.21055-9.788767 8.18484-8.832174 14.87574 9.539355-8.52665 11.580868-3.02192 17.115138 1.52449l6.2755447-14.96331s-3.9018641-2.22168-9.0688897-2.27255zm10.9555781 25.9047s-16.7532211 2.92708-20.5784011 10.752c-4.08006 8.34636 2.523851 9.69538 5.028019 10.5934.669535-6.22841 8.235488-7.5858 16.3576158-7.06385zm63.8752159 15.66875-15.436767 4.04799c3.610578 4.70393 4.219779 7.77179-3.231286 14.85205 6.264394 2.4815 13.507936-.18915 17.03229-5.97491 2.440609-4.00662 3.100376-9.24338 1.635763-12.92513zm8.166972 97.29588c-7.49671-.0523-14.723805 3.78759-15.093521 9.45476 4.553183-3.96841 13.068273-.12509 18.817181 5.30971 4.175564-4.07164 9.022699-6.49068 11.459805-8.4676-2.666506-3.30678-8.07041-5.79864-13.682637-6.23294-.500228-.0387-1.001049-.0604-1.500828-.0639zm-12.775994 23.04981c-2.858079-.10314-6.300428.28093-9.850077 1.65233-9.185899 3.54896-10.323373 14.11901-2.312789 15.89128.622449-7.9153 7.998538-6.9437 14.229468-4.76999l4.284707-11.50005c-1.217577-.57988-3.493229-1.17042-6.351309-1.27357zm11.144958 24.9294c-5.018335-.008-10.064388 1.48028-13.893325 5.82341-5.404461 6.13022-4.11106 15.73412 1.657071 15.9102.120839-10.23643 9.495038-8.17584 16.776625-8.27586zm62.23235 10.02999-13.89332.95163c3.09552 5.81404 4.4521 12.81606-.22963 16.41444 4.6431 1.6795 9.45358.61351 11.86223-3.4396 2.83813-4.77583 2.92708-10.67986 2.26072-13.92647zm232.12671 4.92859-9.05706 11.76518c7.4735.14819 10.39306 5.39754 7.51125 10.64074 5.22398.49995 9.9782-3.51091 10.36851-8.73748.50506-6.76357-3.80023-10.93404-8.8227-13.66844zm-75.49362 7.26032c-3.46632-.0921-6.80265.48506-9.98737 2.33173-6.35998 3.68782-8.86968 14.82382.64861 18.01705.26915-4.51091 1.6638-9.54561 11.63262-8.10779l4.08112-11.48111c-2.16857-.40741-4.29519-.70465-6.37498-.75988zm13.30862 19.90375c-4.81516.65469-11.43973 3.44761-14.38335 7.87817-4.67195 7.03198-1.97212 15.55989 2.16839 18.35319 1.01608-8.7947 2.59491-11.24045 14.56089-15.38941zm15.44387 11.11655c-3.78226 2.93342-6.98436 6.69035-6.93838 12.23389.0865 10.44188 8.72379 10.31246 14.08033 8.49602-5.99071-3.12313-1.92521-8.12574.20122-10.12468 1.83616-1.7261 3.17805-3.48835 4.02667-5.57485z"/><path d="m66.276144 152.52348c-.17281 4.16191-1.972322 8.18006-5.226423 11.03336 3.65708 1.43137 8.90771.0664 10.567377-3.78885 1.827087-4.2442 2.000662-7.88995 4.007405-11.17241 1.377511 1.72521 3.353926 4.83359 4.237978 7.27987 1.387508 3.83941 2.177667 8.64358 2.015073 13.22873-.177281 4.9993-2.064395 10.42884-5.752265 14.58812-5.411661 6.10343-12.205736 7.81627-18.495151 15.87852-3.841733 4.92461-3.575304 11.94606 1.110056 15.98092-.154634-7.38607 3.767753-13.59646 11.278467-17.68538 5.742611-3.12636 11.737777-6.50931 15.419574-10.31623 5.234717-5.41261 6.790412-11.88421 7.276097-17.79084 4.593019 7.59426 17.052818 33.49366 29.925708 40.69282 9.13844 5.11067 19.8778 7.23887 30.26926 6.93964l17.44111-18.43818 7.08858-37.04253c-5.78697-1.33211-12.51277-3.23741-17.50176-4.55843-4.88894-1.29452-11.75271-2.07131-16.93653-5.85317-6.25958-4.56705-12.20015-11.09996-18.20178-16.46254-6.6036-5.90046-14.38052-9.25585-19.26387-13.90975-5.3294-5.07899-9.455042-12.8497-17.735265-19.34372-3.240164-2.541195-7.216309-3.424526-10.140457-6.014029-2.85061-2.524375-4.257884-6.446026-4.340173-9.925672-.231908-9.806503 5.24001-12.21791 6.359873-17.477534 1.657403-7.78426-5.963376-12.643185-13.04054-10.13608-5.211922 1.846338-1.083157 8.111766-1.304514 10.677126-.32562 3.773689-3.105538 7.313101-2.895332 10.213628-3.318856-.995522-4.477625-5.965985-4.703973-10.82874-.284929-6.121275.218299-14.379521-6.0553-17.542404-4.864406-2.452427-12.352208-1.552239-13.680781 4.38688-1.543957 6.901951 6.396232 7.074553 7.067961 8.487675.799098 1.681073 2.223751 12.331294 2.45948 14.092819-2.137867-.706071-4.027266-1.88067-6.573278-3.167037-6.868278-3.470184-7.378907-9.689754-13.692113-9.668163-5.816284.01989-12.755897 4.851498-10.059236 10.696536 3.242686 7.02855 11.562393 4.706146 13.484558 5.192197 2.18375.552198 18.092641 6.882206 20.098571 30.852698.271204 3.24083-8.821756 3.97086-9.040304 11.02466-.217275 7.01262 4.548992 12.03881 11.075542 10.97607 4.88311-.79512 7.57564-4.45988 8.488964-7.89111 2.258037 6.49532 5.933015 11.21973 7.531334 16.24152 1.232712 3.87309-2.381752 6.16163-2.563923 10.54901z"/><path d="m193.04944 300.31627c-7.6451 3.38757-17.81688 6.14431-27.73325 9.47274-14.92749 5.01042-27.75833 10.44247-31.80455 17.42247-1.87979 3.24276-5.21501 7.49762-11.37585 11.62072-6.20201 4.15065-13.10053 7.34836-25.447954 8.63893-9.276939.96964-18.81869-1.12299-26.011359-4.64994-6.239291-3.05946-11.373981-8.80689-14.326586-14.85901-1.848831 6.19582 2.210728 13.46274 8.139283 17.73751 6.724141 4.84843 15.506246 8.37418 24.342603 9.3144 8.24285.87707 17.825793-.28645 24.530683-2.68369 8.81229-3.1507 16.16095-7.83766 22.01697-12.84655.67607 2.25703 1.49913 4.5572.85854 7.28316-1.5521 6.60477-8.86741 13.57719-16.18132 15.61519 4.64817 4.20641 17.00442 1.01952 20.69677-6.62642 1.56547-3.24169 3.50995 18.60544-.2515 28.25265-2.52005 6.46332-8.8545 13.34763-14.33244 16.66353-11.05611 6.69248-21.92513 7.1093-32.328845 3.15577-5.997741-2.27921-3.079374-8.40496-11.865645-10.4085-3.926642-.89539-9.662684 4.20548-10.173464 8.46175-.81207 6.79032 16.841879 10.02529 18.273652 11.91926-4.366317 2.33901-10.761274 2.97249-16.287215 2.12275-2.035041-.31294-6.952253-5.36824-11.76277-3.54017-2.908984 1.10545-8.711988 6.31457-4.866041 12.31859 4.028234 6.2886 11.492367 1.71741 15.110928.94003 2.945952-.63288 15.900576 1.39561 21.623161.88311-2.462477 3.27036-7.997571 5.85662-13.52255 6.76475-6.574513 1.08064-10.458633-1.10435-13.670141 2.77502-4.583142 5.53625-.458249 14.71468 5.347729 15.29517 9.336425.93347 9.096205-5.23609 13.782147-6.81897 5.406606-1.8263 19.449834-9.88913 25.922484-8.17858 4.84194 1.27959-2.4758 10.39825 2.54151 13.97644 5.95442 4.2465 15.45282 2.72133 18.01604-3.07015 1.45145-3.27948-.6063-8.30461-2.69699-10.70546 2.79361-.94373 5.88209-1.73266 8.77444-2.05259 2.50819-.27744 5.70778-.41831 7.71386-1.20602 2.01589-.79156 4.54765-2.12922 7.61874-3.81009-1.22729 8.07979 1.58772 15.47223 12.5335 14.03754-5.26245-3.97343-5.3988-12.04496-1.84876-17.37763 3.00403-4.51249 9.26192-7.85646 11.52752-9.2393 3.81046-2.32576 10.55748 4.70762 19.27011-.35848-3.67092-1.51052-4.51586-3.79822-3.96029-6.02035.72259-2.89021 6.39426-6.98381 7.05794-10.62695.66696-3.66117-1.99035-8.28558-3.68972-11.74665-3.35434-6.83173-2.43496-16.06923-.7199-22.58668 2.33553-8.87531 8.27189-15.36153 18.44774-19.76884 15.64142-6.77453 39.65267-6.48349 40.01209-8.55066 8.42955-48.44353-6.31854-57.61907-16.0522-65.58401-5.52353-4.51984-9.83405-.0508-23.59928 12.00372-6.37115 5.57937-12.05022 13.27308-19.64982 16.64049z"/><path d="m226.45761 269.47558c9.38852 8.88361 15.60909 25.72112 14.847 36.25633-9.32723 15.78138-6.8219 24.83457 2.19206 25.30976 7.35534.39303 8.90683-7.81928 8.83057-17.85252-.068-8.95141-1.17167-16.41395-4.76739-24.17372-4.90636-10.5882-13.01629-15.55119-21.10224-19.53985z"/></g><path d="m-1314.3602-612.45828c-10.1706-4.62584-15.7586-11.12404-13.3054-18.64228 2.0013 2.69407 5.0028 6.10975 8.2722 9.3589 5.1019 5.07023 11.6999 9.2836 19.2398 13.54563 8.6433 4.88569 17.9387 10.22341 25.0865 15.44953 6.6899 4.89133 11.7501 11.01122 15.1474 20.42105 3.2379 8.96806 4.5218 19.88691 4.2083 29.56974-.206 6.36264.064 13.31244-.1207 19.99688-.1382 5.00755-1.3104 10.73111-1.2457 16.41133.053 4.65466 1.3035 11.49983 3.1647 16.16797 2.9471 7.39154 3.1068 13.36795 2.0054 18.69861-1.0508 5.08607-5.1001 11.29635-9.7729 16.30658-3.3235 3.56347-7.2896 9.72642-8.0763 18.71284-.9799 11.19251 3.3415 20.87327.055 33.7342-2.6303 10.29344-10.8966 16.7318-19.2051 21.76557 14.5245.95503 26.7975-7.96772 29.7418-23.95717 2.6002-14.12063-3.5026-25.57243 2.6838-38.2149 4.9391-10.09348 15.5197-12.36769 16.3227-25.70639 5.2415 2.5859 10.1953 8.10131 11.132 14.64136 1.2015 8.38881-1.1379 17.00154-6.2076 22.61034 8.1768-.12913 15.5964-9.15062 16.7088-16.73176 1.2512-8.52693-1.2264-11.93178-2.3062-17.71672 3.7326 3.74518 7.5117 7.06593 10.618 9.37389 5.0184 3.72865 10.9825 6.7043 17.0025 9.92147 7.1854 3.84002 13.424 7.84344 19.1307 13.76476 5.185 5.38001 8.0481 14.16925 8.5075 24.09815.2695 5.82296.045 13.29029-.874 19.98682-.8652 6.30429-3.8728 13.14922-8.5348 19.11273-3.1747 4.06103-7.4281 7.38686-12.7167 9.36607-6.8372 2.55877-11.3048-.78586-16.2902-.48682-8.0701.48408-11.6922 10.77219-7.2023 16.67858 3.8207 5.02612 9.8319.27842 14.122-2.09038 3.9462-2.17887 11.5604-2.3578 19.0401-5.12946-10.0481 15.59254-14.6582 10.47411-19.2201 14.62303-5.4793 4.98329-2.5104 19.89695 5.1286 18.16337 8.1566-1.85101 6.353-8.08791 7.494-9.02686 2.498-2.05535 10.9174-6.33323 18.3238-15.41242 0 0 .044 6.57375-1.5115 10.08343-1.9039 4.29486-9.832 5.51624-10.4279 11.95066-.8241 8.89939 8.8517 11.18653 15.6893 8.06802 11.418-5.20764 4.6742-15.10757 7.5651-20.23526 2.2458-3.98356 9.3851-21.2773 17.6066-27.94306 1.3042 2.499 5.4616 8.16632 8.7957 8.42087 6.8681.52436 19.2416-11.3189 13.1133-17.77546-3.3809-3.56204-9.1024-3.70072-6.3143-6.68164 4.9162-5.2563 4.7615-16.77325 7.797-24.6575 2.3499 4.67664 5.9785 9.01786 14.3169 7.87891-6.1715-13.44107-2.3524-14.08133-1.9456-23.80372.116-2.7731-1.0458-6.06093-2.4469-8.26394 3.5235 1.8256 10.4612 2.91415 17.0977.65092 11.7301-4.00029 12.1278-14.64669 22.1807-18.64948-15.7791-5.78795-13.9561 8.94087-30.7733 9.09501-6.8729.063-11.1273-2.54406-10.8281-8.68176.2353-4.8269 2.0113-9.77223 2.7562-14.90261.607-4.18044-1.3923-9.28725-4.1835-10.78113-3.3107-1.77195-8.5938-4.45693-12.2988-6.73059-4.4654-2.7403-8.8992-5.44505-12.9534-7.72681-4.936-2.77807-10.6807-7.66192-14.3367-12.88932-5.8405-8.35092-7.4116-15.58196-10.312-26.06753 2.3944 1.96846 7.8145 4.0996 15.9374 4.29932 8.5261.20964 17.1129-3.98753 32.1469 12.02436 2.889-6.2077 2.3861-14.10753-4.4828-18.68493 10.8327-7.22185 18.6531-18.54419 19.4739-32.4099.9406-15.68646 5.3002-31.51772 15.946-33.34506 8.2319-1.413 14.2167 4.39715 15.3173 12.88128 7.8616-15.18665-1.2794-28.4663-15.9663-28.32491-6.789.0654-13.9315 3.79959-17.7265 9.511-4.627-19.25602 5.1147-34.41018 23.9818-38.60499 18.3373-4.07703 40.7896-5.26166 53.3797-20.5461 9.2141-11.18596 7.5997-27.29011-.5154-35.94011-.2213 7.3411-4.502 20.88056-20.2346 28.0498-18.1828 8.2858-56.3884-1.56048-74.7839 29.83672-2.2035-24.4809 18.0987-44.12025 44.4335-55.80636 23.7364-10.53308 47.5556-14.54141 64.3785-26.04941 31.84033-21.78088 21.85065-54.32823 9.76765-62.95053.6454 6.8292 1.767 17.89755-6.64225 30.4034-16.5672 24.638-50.1849 25.01513-79.0883 35.32474-21.2253 7.57087-42.8229 21.93816-50.1597 40.38106-2.4568-12.2622 3.1616-31.24441 14.343-44.02491 11.5814-13.2376 26.5143-21.11076 35.7902-26.24946 22.3293-12.37012 74.3985-29.8562 74.9397-74.87931.2876-23.93293-17.2422-46.59922-44.9342-46.72575-16.6005-.0758-23.8426 4.82614-29.8531 6.81357-4.7156 1.55925-8.3897-.98139-19.7593 1.98929-14.7854 3.86318-22.7209 19.4234-44.8792 5.87564.8224 12.08353 12.6395 19.65768 27.9899 17.96852-1.8242 9.82167-6.4117 21.36794-13.0218 29.85367-5.3925 6.9226-11.8823 12.61367-18.7524 16.25567 8.9267 4.20132 20.9763 4.21431 31.5575-1.55608 13.1123-7.15069 22.1811-18.46913 27.0082-30.28767 3.5584 12.58175 13.887 19.09989 25.9975 17.19461-11.6914-8.44009-15.4848-22.78626-4.8112-34.19896 2.921-3.1233 3.0777-5.00699 5.7277-6.5097 1.9015-1.07824 4.1335-1.7451 6.5423-2.22413 17.2895-3.43827 30.5364 8.82274 30.4781 26.26944-.098 29.36436-41.2329 39.58774-68.2332 52.48395-15.2165 7.26789-29.7432 15.3732-42.7815 28.9712-10.169 10.6055-23.4804 32.75661-23.4418 61.85191.028 21.5605 6.7352 38.828 16.9393 54.28157 10.2041 15.45361 16.3431 28.38727 20.8332 40.45591 5.3969 14.50649 2.4466 33.49796-9.7501 36.48742-17.2644 4.23157-26.343-13.17884-33.8991-32.15258-5.2868-13.2751-11.7698-27.74766-19.0612-40.9903-7.7859-14.14089-17.2529-29.23309-27.4622-45.71767-11.1726-18.03997-4.1136-35.80386-3.2012-45.55717 2.5004-26.72518-6.4012-51.597-31.8489-59.54412-25.4477-7.9471-45.9868-.0705-60.5146 11.80243-14.737 12.04386-23.6503 27.9554-38.8388 41.38446-14.5614 12.87479-35.3944 21.93379-52.028 29.09438s-33.5484 21.19504-49.5739 32.28054c-14.0059 9.6885-26.648 16.38392-41.5838 20.70777-6.7953 1.96722-16.0466 1.63437-27.8935 1.09279-5.3514-.24464-12.3495-2.01275-18.1808-5.51292-10.0548-6.03528-6.9424-11.45489-14.0043-13.54722-9.2105-2.72892-18.5869 4.88704-18.6784 12.48557-.1141 9.05928 9.4393 5.81877 13.7647 6.37176 6.4009.81834 2.0177 6.06907 18.0093 11.81075-7.4424 1.95705-16.3373 1.96877-24.8018.77005-5.68-.80441-9.7862-6.7518-17.4548-5.51476-8.8815 1.43263-15.8038 12.21803-9.2989 19.49695 4.0638 4.54725 14.363.24702 18.6997.17324 2.3412-.0398 13.9532 3.34908 22.7149 3.70132-2.8628 2.65034-7.0803 4.76496-12.6698 4.94917-6.7279.22171-10.3824-1.04109-15.0298.35741-11.5972 3.48975-10.5403 21.17843 2.7018 21.44714 6.3074.12988 11.8214-2.04509 14.7835-5.25713 3.9944-4.33152 10.6612-11.19669 25.6348-9.62759 14.7344 1.54401 11.519 14.62704 12.7476 18.44183 2.1393 6.6423 18.0951 4.3676 23.1867-1.58773 2.9192-3.41426 1.8623-7.78456-.2195-10.16686 6.412.11634 8.7205-2.49526 14.6638-3.33026.4134 1.71769.9405 5.07425.4869 7.41147 9.1781-.7361 14.2071-8.74123 20.4058-10.62039 8.0338-2.43548 1.6977 14.24638 14.5167 18.60341-1.342-12.86516 8.0635-16.25542 12.8014-17.75915 4.1472-1.31625 10.2266-2.03959 14.141-2.72933-1.6469 5.91071 1.087 12.64328 6.0789 16.2308 4.1489 2.98168 11.6735 4.99494 16.8617 4.446-9.5067-8.08043-10.8058-20.73909-.751-26.3195 7.9976-4.43867 19.5165-9.03994 25.7971-13.9188 3.6607 4.44193 11.5371 7.66361 17.4151 7.97463-1.8909-7.46697.179-13.46706 3.8439-16.40127 2.1503-1.72159 7.4071-7.36892 8.0129-4.97205 3.2552 12.87983 16.143 14.97371 29.9901 10.3249z" stroke-width="3.843375"/><path d="m-1249.2618-805.59164c-10.7204-.85066-21.0616-1.65526-29.7769-5.01271-8.1183-3.1275-20.0029-3.1903-29.4056-.38427-15.1264 4.51417-24.8589 7.96385-40.6899 6.56251-13.3314-1.18008-17.7901-7.80063-16.2326-20.15069 3.2744 6.66188 8.1616 9.45956 12.6643 9.95284 5.7927.63461 15.9483-.64257 23.7073-3.98391 40.1691-17.29841 67.842-10.54129 79.7334 13.01623z"/><path d="m-1324.5345-827.32212c-6.9572-3.06375-7.6941-13.68435-6.4361-17.1736l11.8414.26082c-2.015 3.67475-4.6117 10.817-5.4053 16.91278z"/><path d="m-1318.6939-803.32202c-.6891 3.75685.582 8.4465 2.4244 11.26378l8.1169-2.27925c-4.2778-2.091-8.1565-5.29878-10.5413-8.98453z"/><path d="m-1200.6232-655.81728c-8.8115-5.14267-14.4564-15.50564-14.0243-24.20785.3379-6.80486 3.2787-14.53105 5.4068-20.53977 2.4187-6.82922 3.9058-14.60224 4.5921-21.9718 4.3316 6.2556 11.7825 6.99055 17.3578 1.4484-6.0567-.71763-10.3789-5.12561-10.2833-11.02438.1155-7.33902 6.0594-10.46635 6.8334-17.6588.9737-9.04755-1.5484-16.96295-2.2818-22.31885 6.1577 3.13123 13.7072 1.5772 14.6653-5.76715-3.8678 1.64421-8.0195.86174-10.6367-3.39947-3.7212-6.05861 4.4594-10.90712 3.8249-18.36729-.6528-7.67533-5.3574-14.97721-6.495-20.50491 6.8192 3.80745 15.1872 2.41809 15.3863-7.29334-2.9966 2.15165-6.9921 2.60831-10.419.69059-6.1634-3.44913-2.6556-11.37556-4.7866-18.97343-1.9279-6.87377-7.8269-13.56791-8.9484-19.44036 5.5809 2.2972 11.8966.56806 12.416-5.01364-4.6884 1.72584-12.9012.41474-16.47-5.19443-4.4882-7.05429-11.4173-15.73994-22.0024-21.07346-10.106-5.09213-24.9489-8.22065-43.4815-7.33373-17.1726.82184-37.5785 7.33357-49.742 15.51328-6.8054 4.57652-2.3869 7.6474-.3248 11.12671-6.268-.47469-13.0246.73026-18.8117 3.29941-3.3384 1.48206-7.6379 4.57499-7.189 6.47079.2594 1.09562 4.4941.0654 6.5-1.34593.067 4.29386-.9327 9.2554-.596 13.69763.4427 5.84248 4.0416 11.04336 8.8615 12.0335 12.7814 2.62541 24.3398 1.41968 35.7658-3.5674 15.4697-6.75206 20.8496 1.93005 22.5579 11.48728 1.7223 9.6355-.9035 21.79676-9.2732 29.72049-4.3452 4.11364-12.3715 10.50388-20.4673 10.52313-4.5442.0108-9.0285-2.04061-12.9211-.11112-1.9846.98374-2.2985 5.52691-2.7373 9.2065-.3426 2.87222 1.9216 4.3339 4.9834 4.92731 7.0974 1.37561 5.6227 8.78535 9.8639 9.75539.1899-1.92821 1.688-9.71086 3.409-9.84137 6.9175-.52451 22.7453-3.24254 22.3766-.60171-.9312 6.64265-23.7526 21.9466-37.3871 23.9074-14.1871 2.04028-16.6527-4.43361-29.6622-6.67845-10.8182-1.86672-18.5961 5.20092-27.6619-3.3729-4.9546 6.27646-2.713 13.825 4.7331 17.98274-5.8121.0588-13.0541-.0945-19.6695-.93485-10.0052-1.27095-19.7229-5.00984-25.5042-11.8357-6.8568 17.31342.3092 34.39438 18.7531 40.49897-4.2535 7.14627-11.1944 13.00061-19.2824 15.94635-7.9197 2.88444-18.5389 1.6148-24.8047-4.65789-5.4642 15.15971 1.3591 29.18758 15.7663 34.31003 8.8745 3.1553 20.4421 1.53898 28.5061-1.22692-1.8646 6.62328-4.9359 15.95964-17.5252 22.66026-7.2306 3.84846-16.4894 4.61853-23.8689 2.87296 2.3657 15.69446 15.736 26.13161 32.4097 26.45578 14.7502.28677 29.2807-6.32673 39.9352-17.73292-.6354 8.71164-6.134 16.38526-5.1658 29.3971.8833 11.87149 11.9057 22.18046 25.6867 24.76615-4.1888-19.23962 6.5475-36.81007 24.3028-46.80664 9.344-5.26083 17.8818-11.46001 24.3105-18.78584 2.1591 13.65858-5.4315 24.80108 2.0202 38.83742 5.7519 10.83445 22.7478 13.62603 37.6475 10.63761-9.5664-6.89326-12.3856-20.4346-5.4566-34.07008 4.9749-9.78998 13.5092-14.67807 19.2898-21.26159 3.2218-3.66931 5.0751-7.71986 5.6853-11.10426 3.5875 4.67935 4.9491 11.26785 8.9571 15.24271 5.1638 5.12111 16.1424 5.78018 25.0758.60234z"/><path d="m-1308.3343-874.33159c6.5993-2.5238 9.3298 1.04707 9.3918 4.86315.055 3.39979-4.0184 7.52359-10.3581 2.96866m-6.1632-8.83061c3.4433-5.72433 9.7462-8.85968 16.3437-7.87707 9.5035 1.40991 4.1633 10.37914 20.7835 10.4825m35.0052-8.89675c2.5438-3.87845 6.3272-6.54247 10.8714-6.15907 8.1741.6896 8.0943 16.61339 3.1919 23.45091m-48.5261 9.89278c1.6447 1.31894 5.4772 5.03129 9.4085 5.24107 8.4815.45263 12.8259.516 15.6403 2.67169 3.3398 2.55812 3.0769 8.22387 6.5541 17.04356m5.1103-48.37649c1.2685 3.21973 1.916 6.89856 2.2515 10.39821m-26.8468 71.45181c-.035 3.63913-.6531 7.01074-1.7947 10.4229"/></g><path d="m300 658.49999s298.5-112.43608 298.5-398.18182v-258.81817h-597v258.81817c0 285.74574 298.5 398.18182 298.5 398.18182z" fill="url(#a)" fill-rule="evenodd"/><path d="m299.99999 658.39715s-298.49999-112.41841-298.49999-398.11925v-258.7775029h596.99999v258.7775029c0 285.70084-298.5 398.11925-298.5 398.11925z" fill="none" stroke="#000" stroke-width="3"/></svg>