<?xml version="1.0" encoding="UTF-8" standalone="no"?><svg height="660" width="600" xmlns="http://www.w3.org/2000/svg" xmlns:xlink="http://www.w3.org/1999/xlink"><radialGradient id="a" cx="221.44487" cy="226.33101" gradientTransform="matrix(1.353218 0 0 1.348928 -77.62935 -85.74693)" gradientUnits="userSpaceOnUse" r="300"><stop offset="0" stop-color="#fff" stop-opacity=".313726"/><stop offset=".19" stop-color="#fff" stop-opacity=".25098"/><stop offset=".60000002" stop-color="#6b6b6b" stop-opacity=".12549"/><stop offset="1" stop-opacity=".12549"/></radialGradient><path d="m300 658.5s298.50001-112.43608 298.50001-398.18181v-258.81819h-597.00001v258.81819c0 285.74573 298.5 398.18181 298.5 398.18181z" fill="#e20909" fill-rule="evenodd"/><g fill="none" stroke="#000" stroke-linecap="round" stroke-linejoin="round" stroke-width="1.118067" transform="matrix(.983792 0 0 .98389011 384.23464 -148.65856)"><path d="m64.01152 568.57232-147.9818-124.29861m91.58476 187.81479-91.58476-187.81479m89.63262 131.10493-89.63262-131.10493m113.70794 128.29657-113.70794-128.29657" fill="none" stroke-width="2.236134"/><path d="m72.28434 606.23628-54.313 2.375c-16.86752 49.08956-63.46038 76.375-118.25 76.375-46.79894.00002-87.57768-17.76932-109-55.875l-47.5.3125c18.18834 74.83088 84.50894 122.37498 163.5 122.375 86.9488 0 156.62038-59.3154 165.563-145.5625z" fill="#000" stroke-width="2.236134"/><g fill="none" stroke-width="1.118067" transform="matrix(2 0 0 2 1194.5964 -797.95119)"><g stroke-width="1.118067"><g fill="#fff"><path d="m-640.38695 601.46537-.0122-6.04751c-9.00936.76547-17.99246-4.99521-19.90303-1.79236l-3.17283 5.14116c2.46208-3.99607 13.05562 4.67544 23.08811 2.69871z"/><path d="m-660.30223 593.6255-3.17283 5.14116c-1.79383 2.50628 7.29369 7.29574 5.45171 9.8001l2.74169-4.18289c1.9557-2.74341-7.35662-6.94695-5.02057-10.75837z"/><path d="m-682.31697 611.01092c10.33023-8.699 21.84096-.46033 27.03531-6.62705l-3.15579 5.30745c-2.86333 4.81558-16.28681-2.60806-23.87952 1.3196z"/><ellipse cx="-638.81342" cy="615.58643" rx="9.891501" ry="1.451963"/></g><path d="m-640.3 592.31152h3l1.499 158.11853h-6z" fill="#fff"/><g fill="none"><path d="m-643.3 700.31152h9l.499 8.11853h-10z" fill="#fff"/><path d="m-633.90382 706.75717h-9.79395m9.6956-1.6h-9.59686m9.49749-1.61685h-9.39771m9.30037-1.58354h-9.20265" fill="none"/></g><path d="m-641.97375 605.84375.0312 2.4375-3.46875.40625-.9375-2.5c-2.83507.33398-4.68749.83563-4.6875 1.40625l2.34375 8c-.00001-.8015 4.41489-1.46875 9.875-1.46875 5.46012-.00002 9.90625.66727 9.90625 1.46875l2.3125-8c0-.57061-1.85243-1.07227-4.6875-1.40625l-.9375 2.5-3.46875-.40625.0312-2.4375c-1.01145-.0407-2.05983-.0625-3.1562-.0625s-2.14475.0218-3.1562.0625z" fill="#fff"/></g><ellipse cx="-639.3183" cy="585.24927" fill="#fff" rx="3.988408" ry="3.753795" stroke-width="1.081541" transform="matrix(1.0029065 0 0 1.0655882 2.376489 -33.32319)"/><g fill="none" stroke-width="1.118067" transform="matrix(.64 0 0 .64 -229.987 169.57348)"><path d="m-643.3 700.31152h9l.499 8.11853h-10z" fill="#fff" stroke-width="1.111715"/><path d="m-633.90382 706.75717h-9.49771m9.36934-1.6h-9.36934m9.36934-1.61685h-9.36934m9.20265-1.58354h-9.20265" fill="none" stroke-width=".992601"/></g></g><path d="m72.28434 606.23628-54.313 2.375c-16.86752 49.08956-63.46038 84.375-118.25 84.375-46.79894.00002-87.57768-25.76932-109-63.875l-47.5.3125c18.18834 74.83088 84.50894 130.37498 163.5 130.375 86.9488 0 156.62038-67.3154 165.563-153.5625z" fill="#fff" stroke-width="2.236134"/><g stroke-width="1.118067"><g fill="#fff" transform="matrix(1.9996954 -.0349048 .0349048 1.9996954 1155.6207 -817.99729)"><ellipse cx="-500.00089" cy="614.604" rx="4.090394" ry="3.793439" stroke-width="1.10105" transform="matrix(.977901 0 0 1.0544522 -209.15281 -32.182874)"/><path d="m-695.91049 618.39745c-2.35614-.49319-1.29034-3.97405.80479-3.45351l130.84837 25.24463-.95258 3.33581z" stroke-width="1.118067"/><ellipse cx="-500.00089" cy="614.604" rx="4.090394" ry="3.793439" stroke-width="1.10105" transform="matrix(.977901 0 0 1.0544522 -72.57043 -5.618379)"/></g><g fill="none"><g stroke-width="1.118067"><g stroke-width="2.236134"><g fill="none" stroke-linecap="round" stroke-linejoin="round" transform="translate(-282.16695 371.79281)"><path d="m87.86646 62.6677c-3.79125.130366-6.91351 4.052554-9.09192 7.264622-26.52463 39.110368-28.83428 171.089898 115.05624 250.697548-28.64386-52.31838-21.29145-140.9143 125.53117-205.74341-4.43792-.64406-3.68963-7.3979.58194-6.87096-.72997-3.17918-7.10716-8.303436-14.07183 1.33442-4.02895 5.57534-9.86983 7.55053-15.20218 6.4538-5.02974-1.0345-13.5535-6.42712-9.5227-11.96063 1.55987-2.14141 4.69001-1.61726 7.16678-1.25026-.72998-3.179186-7.12664-12.500906-14.91996 1.13556-3.68045 5.81306-9.86766 7.54036-15.20218 6.45379-4.9591-1.0101-13.59846-6.44667-9.52269-11.960616 1.57597-2.13207 4.68421-1.61812 7.16677-1.25027-.72998-3.17919-7.12664-12.50091-14.91995 1.13556-3.68045 5.813056-9.88441 7.614786-15.20219 6.453796-5.08625-1.11044-13.37519-6.129626-9.46129-12.024206 1.46484-2.20614 4.63893-1.45276 7.16677-1.25027-.72999-3.17916-7.12663-12.500908-14.91995 1.13556-3.68047 5.81308-9.88272 7.607356-15.20218 6.4538-4.68535-1.01604-12.20421-5.12217-10.01062-11.26451 1.47217-2.69978 5.26374-2.34042 8.02325-2.0919-.73001-3.179178-7.4327-12.356481-15.22602 1.27999-3.68048 5.81306-9.88254 7.60705-15.20218 6.45379-5.17613-1.12215-11.9686-5.03298-10.01061-11.264498.91573-2.91443 5.58155-2.36617 8.45358-2.06307-.72998-3.179146-7.86303-12.38532-15.65635 1.25115-3.68045 5.813098-9.86545 7.529738-15.20218 6.453798-5.54297-1.11754-12.22326-5.556658-9.89-11.516651 1.06864-2.729686 5.06217-2.203483 7.84298-1.943035-.73-3.179244-7.31274-12.37928-15.10606 1.257189-3.68047 5.812999-9.86134 7.509369-15.20218 6.453799-7.05913-1.39526-11.6794-6.828848-10.492-10.193444 1.28055-3.628541 6.07215-3.610803 9.13288-3.055736-.21937-4.037466-3.20543-6.091245-6.88514-5.964706z" fill="#fff"/><path d="m173.39075 304.81948c-46.42142-48.15909-85.518791-104.64049-77.371424-172.85427m64.961094 145.45523c-18.25754-39.50194-40.68044-82.02922-28.80156-131.5667m25.89465-5.03718c4.09574-10.9594 8.03445-21.93032 18.53897-32.41972m.009 44.32306c9.26784-15.87922 20.34068-30.01536 35.06452-40.62576m-40.59787 97.69143c13.66434-31.05283 26.88867-50.75339 49.66973-67.77058" fill="none"/></g><path d="m-245.02866 629.36128c18.17026 66.36056 77.8674 115.12498 148.75 115.125 78.643 0 143.6056-60.00442 153.25-137.5m-290.375 22.3125c19.26934 57.28264 72.47288 98.5 135.125 98.5 70.3401 0 128.84016-51.93372 140.6875-120.25m-265.0625 21.6875c20.68746 47.54468 67.69146 80.75 122.375 80.75 62.46766 0 114.93634-43.34412 129.5625-101.875" fill="none"/><g fill="#fff"><path d="m1.66234 602.17314v-26.7945l99.64508-10.69018-4.09924 33.42664-9.74122.65804zm-270.68788 20.18454-3.5267-28.4973 75.20654 7.92482.62532 20.94796z"/><path d="m5.66306 602.17314-.38534 6.97238 75.985-3.21402 6.20424-7.15836zm-270.6886 20.18454.4733 7.14552 61.58834-.4174.6157-6.35264z"/></g></g><path d="m-247.26631 611.57666a6 6 0 0 1 -6 6 6 6 0 0 1 -6-6 6 6 0 0 1 6-6 6 6 0 0 1 6 6zm20 0a6 6 0 0 1 -6 6 6 6 0 0 1 -6-6 6 6 0 0 1 6-6 6 6 0 0 1 6 6zm20 .00002a6.0000001 6.0000001 0 0 1 -6.00001 6 6.0000001 6.0000001 0 0 1 -6-6 6.0000001 6.0000001 0 0 1 6-5.99999 6.0000001 6.0000001 0 0 1 6.00001 5.99999zm293.638197-28.7889a7.4999995 7.5 0 0 1 -7.5 7.5 7.4999995 7.5 0 0 1 -7.499999-7.5 7.4999995 7.5 0 0 1 7.499999-7.5 7.4999995 7.5 0 0 1 7.5 7.5zm-26 2a7.4999995 7.5 0 0 1 -7.5 7.5 7.4999995 7.5 0 0 1 -7.499999-7.5 7.4999995 7.5 0 0 1 7.499999-7.5 7.4999995 7.5 0 0 1 7.5 7.5zm-25.999994 1.99998a7.4999997 7.5000002 0 0 1 -7.500009 7.49998 7.4999997 7.5000002 0 0 1 -7.49999-7.49998 7.4999997 7.5000002 0 0 1 7.49999-7.5 7.4999997 7.5000002 0 0 1 7.500009 7.5z" fill="none" stroke-width="2.236133"/></g><path d="m-236.5098 597.7048 152.53952-153.43109m-135.34768 154.95927 135.34768-154.95927-168.6961 151.68212" stroke-width="2.236134"/></g></g></g><g fill="#fff" fill-rule="evenodd" stroke="#000" stroke-linejoin="round" stroke-width="2"><path d="m434.59766 558.18945c-8.75791.1415-17.33145 2.16476-24.47266 4.5918-21.15621 7.19025-25.82093 6.37008-44.0625.15625-18.52117-6.30908-27.81233-5.15245-43.96875.125-16.39399 5.35505-28.72804 5.16141-44.08984-.0762-15.36178-5.23757-23.92448-4.4355-40.93555.46875-17.01106 4.90425-31.00929 6.61799-47.19336.0762-13.37437-5.40611-22.40138-5.42353-42.33008.15234 75.67833 65.77054 152.45508 94.71289 152.45508 94.71289s78.19583-29.46933 154.54297-96.52929c-6.38127-2.78145-13.21723-3.78644-19.94531-3.67774z" stroke-width="2.5"/><path d="m251.8577 635.87316s6.87192-1.30682 20.42159-8.44296c13.54968-7.13614 39.90849-7.35358 55.44141-.14929 15.53293 7.20429 21.92954 7.48958 21.92954 7.48958m-140.96697-25.11529s5.71929-.76639 18.54655-7.40411 29.73171-10.75406 48.51344-.15065 31.29462 11.02849 48.51347-.15064 34.95732-6.64978 48.51344-.1506 21.37873 6.17683 21.37873 6.17683m-219.5413-22.44303s8.38321-2.9816 12.57482-4.4724c13.17297-4.68514 28.21356-8.11916 45.12703-.1512s29.61398 7.44668 45.12704-.1513 26.52728-7.27031 45.12703-.1512 25.49104 8.32242 45.12703-.1512 34.44632-5.40748 45.12703-.1512 15.692 3.5527 15.692 3.5527"/></g><path d="m1.5000002 1.5h596.9999998v197h-596.9999998z" fill="#2b5df2" opacity=".99"/><g id="b" fill="#fcef3c" stroke="#000" stroke-width="1.375255" transform="matrix(1.8191011 0 0 1.8165899 33.991249 9.487277)"><path d="m58.4045 30.002563c10.623589.254887 17.913809 18.078823-4.381231 26.779783 7.368673-14.435091-6.304863-9.001593-8.107633 1.487765h-5.281032c2.918357-21.305635 10.964057-28.430837 17.769896-28.267548zm-28.670445 32.879624c-2.689943 6.351212-6.01068 8.985609-9.238913 12.10643 3.618431.01653 7.22029-.678341 10.95801-3.813952.06366 9.674934 1.472102 12.982213 4.833195 16.232778 3.322964-3.148966 4.844408-6.547148 4.833199-16.232778 3.737717 3.135614 7.339689 3.830473 10.95812 3.813952-3.227999-3.120593-6.549187-5.756246-9.239024-12.10643zm6.552292-60.4961189c-10.503711 11.1508859-14.159534 23.8009959-6.200019 40.0840649 2.303855 4.713079 3.408414 10.026686 3.100009 15.799979h6.20002c-.308405-5.773293.796154-11.0869 3.100009-15.799979 7.959518-16.283067 4.303695-28.933179-6.200019-40.0840649zm-22.118147 27.6164959c-10.6235893.254887-17.9138081 18.078824 4.38123 26.779783-7.368672-14.435091 6.304863-9.001593 8.107633 1.487765h5.281032c-2.918357-21.305636-10.964056-28.430837-17.769895-28.267548z" fill="#fcef3c" fill-rule="evenodd" stroke="#000" stroke-width="1.375255"/><path d="m21.701165 58.195878h29.170365v4.760697h-29.170365z" fill="#fcef3c" stroke="#000" stroke-width="1.375255"/></g><use height="100%" transform="translate(200)" width="100%" xlink:href="#b"/><use height="100%" transform="translate(400)" width="100%" xlink:href="#b"/><g stroke="#000"><path d="m1.5 101.82227v96.67773h5.5703125c.1949478-8.62765 2.1713989-16.63437 5.7089845-23.86133 14.479153-29.57965 7.828013-52.55982-11.279297-72.8164zm198.5 0c-19.10731 20.25658-25.75847 43.23674-11.2793 72.8164 3.53757 7.22696 5.51403 15.23368 5.70899 23.86133h11.14062c.19495-8.62765 2.16945-16.63437 5.70703-23.86133 14.47916-29.57965 7.82997-52.55982-11.27734-72.8164zm200 0c-19.10731 20.25658-25.75846 43.23674-11.2793 72.8164 3.53758 7.22696 5.51403 15.23368 5.70899 23.86133h11.14062c.19496-8.62765 2.16946-16.63437 5.70703-23.86133 14.47917-29.57965 7.82998-52.55982-11.27734-72.8164zm198.5 0c-19.10731 20.25658-25.75846 43.23674-11.2793 72.8164 3.53758 7.22696 5.51403 15.23368 5.70899 23.86133h5.57031zm-556.765625 50.16796c-11.847326-.28385-25.751698 11.57401-31.580078 46.50977h10.212891c5.866215-15.19123 24.397121-21.3588 14.439453 0h3.908203c34.444682-16.40642 21.510572-46.06673 3.019531-46.50977zm118.029295 0c-18.49104.44304-31.4232 30.10336 3.02149 46.50977h3.9082c-9.95769-21.35885 8.57328-15.1913 14.43945 0h10.21289c-5.82836-34.93576-19.7347-46.79362-31.58203-46.50977zm80.47071 0c-11.84734-.28385-25.75367 11.57391-31.58204 46.50977h10.21485c5.86621-15.19123 24.39712-21.3588 14.43945 0h3.90625c34.44619-16.4063 21.51274-46.06673 3.02149-46.50977zm119.52929 0c-18.49104.44304-31.4232 30.10336 3.02149 46.50977h3.9082c-9.95769-21.35885 8.57328-15.1913 14.43945 0h10.21289c-5.82837-34.93576-19.7347-46.79362-31.58203-46.50977zm80.47071 0c-11.84734-.28385-25.75367 11.57391-31.58204 46.50977h10.21485c5.86621-15.19123 24.39712-21.3588 14.43945 0h3.90625c34.44619-16.4063 21.51274-46.06673 3.02149-46.50977zm118.02929 0c-18.49104.44304-31.42319 30.10336 3.02149 46.50977h3.9082c-9.95769-21.35885 8.57328-15.1913 14.43945 0h10.21289c-5.82837-34.93576-19.7347-46.79362-31.58203-46.50977zm-556.76367-141.976558v44.552734c6.0448002-5.72038 8.813361-11.895416 8.792969-29.490234 6.799272 5.696125 13.351304 6.959699 19.933593 6.929687-5.872058-5.668837-11.913549-10.456507-16.80664-21.992187zm186.58008 0c-4.89327 11.537547-10.93417 16.322935-16.80664 21.992187 6.58229.03003 13.1343-1.231615 19.93359-6.927734.11588 17.575387 2.67879 23.583338 8.79297 29.488281 6.0448-5.72038 8.81334-11.893463 8.79297-29.488281 6.79927 5.696125 13.35128 6.957746 19.93359 6.927734-5.87206-5.668837-11.91355-10.456507-16.80664-21.992187zm200 0c-4.89328 11.537547-10.93416 16.322935-16.80664 21.992187 6.58229.03003 13.1343-1.231615 19.93359-6.927734.11581 17.575387 2.6788 23.583338 8.79297 29.488281 6.04481-5.72038 8.81141-11.893463 8.79102-29.488281 6.79928 5.696125 13.35325 6.957746 19.93554 6.927734-5.87205-5.668837-11.91355-10.456507-16.80664-21.992187zm198.5 0c-4.89328 11.537547-10.93416 16.322935-16.80664 21.992187 6.58229.03003 13.1343-1.231615 19.93359-6.927734.11581 17.575387 2.6788 23.583338 8.79297 29.488281v-44.552734z" fill="#fcef3c" opacity=".99" stroke-width="2.5"/><path d="m1.5 1.5v8.648438h26.53125v-8.648438zm171.96875 0v8.648438h53.0625v-8.648438zm200 0v8.648438h53.0625v-8.648438zm198.5 0v8.648438h26.53125v-8.648438z" fill="#fcef3c" opacity=".99" stroke-width="2.5"/><path d="m1.5000002 1.5h596.9999998v197h-596.9999998z" fill="none" opacity=".99" stroke-width="3"/></g><path d="m300.00001 658.5s298.5-112.32031 298.5-397.77183v-259.22817h-597.00001v259.22817c0 285.45152 298.50001 397.77183 298.50001 397.77183z" fill="url(#a)" fill-rule="evenodd"/><path d="m299.99999 658.39715s-298.4999898-112.41841-298.4999898-398.11925v-258.7775027h596.9999898v258.7775027c0 285.70084-298.5 398.11925-298.5 398.11925z" fill="none" stroke="#000" stroke-width="3"/></svg>